<svg xmlns="http://www.w3.org/2000/svg" viewBox="0 0 145 36">
  <path d="M 142.122 27.336 L 142.122 9.702 L 145 9.702 L 145 27.336 Z" fill="rgb(255,255,255)"/>
  <path d="M 137.374 27.336 L 135.859 23.507 L 127.958 23.507 L 126.468 27.336 L 123.389 27.336 L 130.482 9.702 L 133.209 9.702 L 140.53 27.336 Z M 131.896 13.481 L 128.968 20.912 L 134.85 20.912 Z" fill="rgb(255,255,255)"/>
  <path d="M 117.063 13.43 C 120.269 13.43 122.263 15.798 122.263 19.149 L 122.263 27.336 L 119.461 27.336 L 119.461 19.728 C 119.461 17.259 118.376 15.949 116.331 15.949 C 114.185 15.949 112.67 17.662 112.67 20.056 L 112.67 27.336 L 109.868 27.336 L 109.868 13.732 L 111.812 13.732 L 112.367 15.647 C 113.377 14.261 115.068 13.43 117.063 13.43 Z" fill="rgb(255,255,255)"/>
  <path d="M 100.597 27.689 C 96.407 27.689 93.302 24.641 93.302 20.534 C 93.302 16.428 96.407 13.405 100.597 13.405 C 104.763 13.405 107.868 16.453 107.868 20.534 C 107.868 24.641 104.763 27.689 100.597 27.689 Z M 100.597 25.018 C 103.172 25.018 105.015 23.154 105.015 20.534 C 105.015 17.939 103.172 16.075 100.597 16.075 C 97.997 16.075 96.154 17.939 96.154 20.534 C 96.154 23.154 97.997 25.018 100.597 25.018 Z" fill="rgb(255,255,255)"/>
  <path d="M 86.775 27.689 C 83.467 27.689 81.296 25.85 81.221 23.028 L 83.947 23.028 C 84.023 24.464 85.234 25.22 86.875 25.22 C 88.39 25.22 89.551 24.59 89.551 23.457 C 89.551 22.147 88.087 21.869 86.421 21.592 C 84.149 21.189 81.473 20.685 81.473 17.536 C 81.473 15.093 83.568 13.405 86.749 13.405 C 89.905 13.405 91.975 15.143 92.025 17.763 L 89.375 17.763 C 89.324 16.478 88.314 15.773 86.674 15.773 C 85.134 15.773 84.174 16.453 84.174 17.436 C 84.174 18.645 85.563 18.872 87.204 19.149 C 89.501 19.527 92.303 19.98 92.303 23.331 C 92.303 25.976 90.107 27.689 86.775 27.689 Z" fill="rgb(255,255,255)"/>
  <path d="M 73.155 13.405 C 77.295 13.405 80.249 16.453 80.249 20.559 C 80.249 24.615 77.295 27.689 73.155 27.689 C 71.262 27.689 69.57 26.983 68.359 25.799 L 68.005 27.361 L 65.885 27.361 L 65.885 8.87 L 68.687 8.87 L 68.687 14.992 C 69.873 13.984 71.413 13.405 73.155 13.405 Z M 72.953 24.993 C 75.528 24.993 77.396 23.104 77.396 20.534 C 77.396 17.99 75.528 16.075 72.953 16.075 C 70.378 16.075 68.485 17.99 68.485 20.534 C 68.485 23.079 70.378 24.993 72.953 24.993 Z" fill="rgb(255,255,255)"/>
  <path d="M 60.065 11.642 L 60.065 8.744 L 62.942 8.744 L 62.942 11.642 Z M 60.115 27.336 L 60.115 13.732 L 62.917 13.732 L 62.917 27.336 Z" fill="rgb(255,255,255)"/>
  <path d="M 48.632 18.393 L 58.099 18.393 C 58.023 23.809 54.363 27.689 49.163 27.689 C 43.962 27.689 40.125 23.809 40.125 18.544 C 40.125 13.279 43.937 9.399 49.112 9.399 C 53.429 9.399 57.039 12.095 57.821 15.949 L 54.842 15.949 C 54.085 13.682 51.838 12.196 49.163 12.196 C 45.603 12.196 43.079 14.816 43.079 18.544 C 43.079 22.273 45.527 24.892 49.163 24.892 C 51.99 24.892 54.287 23.28 54.943 20.887 L 48.632 20.887 Z" fill="rgb(255,255,255)"/>
  <g transform="translate(0 0.5)">
    <path d="M 0 35 L 0 0 L 35.073 0 L 35.073 35 Z" fill="transparent"/>
    <path d="M 17.496 0 C 13.919 0 10.595 1.063 7.815 2.887 L 27.176 2.887 C 24.396 1.063 21.072 0 17.496 0 Z" fill="rgb(192,249,16)"/>
    <path d="M 31.553 6.974 L 3.432 6.974 C 2.887 7.69 2.399 8.446 1.973 9.243 L 33.012 9.243 C 32.585 8.446 32.097 7.69 31.553 6.974 Z" fill="rgb(192,249,16)"/>
    <path d="M 17.495 35 C 20.881 35 24.041 34.05 26.723 32.399 L 8.262 32.399 C 10.944 34.044 14.104 35 17.49 35 Z" fill="rgb(192,249,16)"/>
    <path d="M 26.523 26.043 L 2.138 26.043 C 2.585 26.84 3.099 27.596 3.664 28.312 L 28.804 28.312 L 30.135 29.635 C 30.926 28.843 32.565 26.707 32.853 26.043 Z" fill="rgb(192,249,16)"/>
    <path d="M 17.706 17.28 L 35.067 17.28 C 35.062 16.713 34.764 14.072 34.579 13.331 L 0.401 13.331 C 0.221 14.072 0.082 14.828 0 15.599 L 16.02 15.599 L 17.711 17.28 Z" fill="rgb(192,249,16)"/>
    <path d="M 20.131 19.687 L 0.036 19.687 C 0.134 20.458 0.278 21.22 0.473 21.956 L 22.413 21.956 L 24.103 23.637 L 33.958 23.637 C 34.251 22.758 34.903 20.407 34.955 19.687 Z" fill="rgb(192,249,16)"/>
  </g>
</svg>